#!OML:ASF E:\CV Data\Top Level 1\Subject 1\Session 1\player.ASF
:FULLY-SPECIFIED
:DEGREES
655
root 4.94051 17.7167 15.4234 10.0814 -2.01682 -7.1255
lowerback 8.99411 0.518938 3.95786
upperback 0.562255 1.22941 3.01402
thorax -4.44805 0.556508 0.754659
lowerneck -16.2007 -6.21633 -12.2485
upperneck 27.0222 -7.45549 7.18766
head 12.389 -3.69516 3.62669
rclavicle 6.95746e-016 -8.74653e-015
rhumerus -37.2383 -3.5569 -83.8326
rradius 35.7848
rwrist -16.4132
rhand -25.5402 -0.450044
rfingers 7.12502
rthumb 0.989878 -30.4275
lclavicle 6.95746e-016 -8.74653e-015
lhumerus -42.2528 5.37103 85.73
lradius 38.1817
lwrist 2.64417
lhand -16.3356 8.33782
lfingers 7.12502
lthumb 9.8764 38.0862
rfemur -17.4932 4.89169 23.939
rtibia 21.8724
rfoot -11.6345 -9.12693
rtoes 6.65907
lfemur -16.5628 -1.80855 -10.1175
ltibia 21.6452
lfoot -9.64556 2.61226
ltoes -1.22859
656
root 4.9465 17.7066 15.4267 10.0955 -2.07351 -7.05586
lowerback 9.12224 0.531222 3.90249
upperback 0.609022 1.24486 2.99693
thorax -4.47147 0.564999 0.76474
lowerneck -16.1945 -6.21042 -12.259
upperneck 26.8621 -7.44804 7.23004
head 12.3251 -3.686 3.64297
rclavicle -8.79622e-015 1.59028e-015
rhumerus -37.233 -3.42714 -83.8427
rradius 35.9416
rwrist -16.5515
rhand -25.597 -0.437313
rfingers 7.12502
rthumb 0.935003 -30.415
lclavicle -8.79622e-015 1.59028e-015
lhumerus -42.276 5.16845 85.7803
lradius 38.4475
lwrist 2.80664
lhand -16.3523 8.3798
lfingers 7.12502
lthumb 9.86024 38.1289
rfemur -17.7371 4.86759 23.8385
rtibia 22.3024
rfoot -11.8396 -9.08469
rtoes 6.68998
lfemur -16.7237 -1.73429 -10.2239
ltibia 21.9592
lfoot -9.82159 2.61915
ltoes -1.20019
657
root 4.95229 17.6968 15.4309 10.1121 -2.14253 -6.97452
lowerback 9.24327 0.54746 3.8357
upperback 0.658982 1.26335 2.97416
thorax -4.4876 0.575278 0.77492
lowerneck -16.1904 -6.204 -12.2625
upperneck 26.7006 -7.4405 7.26914
head 12.2609 -3.67645 3.65672
rclavicle 4.77083e-015 -2.38542e-014
rhumerus -37.2286 -3.31323 -83.8519
rradius 36.1003
rwrist -16.6873
rhand -25.645 -0.417379
rfingers 7.12502
rthumb 0.888625 -30.3953
lclavicle 4.77083e-015 -2.38542e-014
lhumerus -42.2966 4.97141 85.8229
lradius 38.7121
lwrist 2.97018
lhand -16.3795 8.41926
lfingers 7.12502
lthumb 9.83408 38.1696
rfemur -17.975 4.84607 23.7265
rtibia 22.7214
rfoot -12.038 -9.04305
rtoes 6.70804
lfemur -16.8683 -1.65017 -10.3463
ltibia 22.2499
lfoot -9.98855 2.6304
ltoes -1.18511
658
root 4.95784 17.6876 15.4361 10.1309 -2.22286 -6.88922
lowerback 9.35855 0.566735 3.76462
upperback 0.711799 1.28457 2.94735
thorax -4.49748 0.587035 0.782963
lowerneck -16.1915 -6.19654 -12.261
upperneck 26.54 -7.43277 7.31001
head 12.1981 -3.66602 3.67027
rclavicle -1.14301e-015 4.07509e-014
rhumerus -37.2237 -3.21926 -83.8599
rradius 36.2576
rwrist -16.8097
rhand -25.6758 -0.403992
rfingers 7.12502
rthumb 0.858895 -30.382
lclavicle -1.14301e-015 4.07509e-014
lhumerus -42.3152 4.7835 85.8557
lradius 38.9727
lwrist 3.13477
lhand -16.4201 8.45459
lfingers 7.12502
lthumb 9.79486 38.2068
rfemur -18.2 4.82696 23.6117
rtibia 23.1195
rfoot -12.2299 -8.9999
rtoes 6.71641
lfemur -16.9946 -1.55723 -10.4753
ltibia 22.5151
lfoot -10.1474 2.64574
ltoes -1.16591
659
root 4.96323 17.679 15.4428 10.1444 -2.31394 -6.80615
lowerback 9.47071 0.58852 3.69538
upperback 0.771143 1.3086 2.91992
thorax -4.49869 0.600265 0.788967
lowerneck -16.1838 -6.1898 -12.2589
upperneck 26.3701 -7.42604 7.34833
head 12.13 -3.65642 3.68247
rclavicle -9.88954e-015 2.38542e-015
rhumerus -37.2102 -3.13991 -83.8652
rradius 36.4023
rwrist -16.9202
rhand -25.6932 -0.381801
rfingers 7.12502
rthumb 0.842094 -30.3599
lclavicle -9.88954e-015 2.38542e-015
lhumerus -42.3263 4.60605 85.8831
lradius 39.2237
lwrist 3.30027
lhand -16.4769 8.49326
lfingers 7.12502
lthumb 9.74003 38.248
rfemur -18.3971 4.80725 23.5012
rtibia 23.4874
rfoot -12.4149 -8.95119
rtoes 6.71524
lfemur -17.0929 -1.45788 -10.6041
ltibia 22.7557
lfoot -10.3014 2.66644
ltoes -1.14304
